<svg width="186" height="24" fill="none" xmlns="http://www.w3.org/2000/svg"><path d="M173.662.891l-1.381 3.483-6.343 15.995a3.162 3.162 0 01-1.19 1.455 3.202 3.202 0 01-1.812.53h-.51v.665h7.714v-.665h-1.001a2.275 2.275 0 01-1.817-1.024 2.245 2.245 0 01-.214-2.062l2.431-6.132h6.234l2.551 6.43a2.036 2.036 0 01-.227 1.897 2.065 2.065 0 01-1.704.89h-.65v.665h9.455v-.664h-1.001a2.55 2.55 0 01-1.416-.438 2.516 2.516 0 01-.925-1.15L173.972.921l-.31-.03zm-3.862 11.54l2.851-7.174 2.842 7.174H169.8zM57.371.891l-1.32 3.483-6.404 15.995a3.16 3.16 0 01-1.169 1.441 3.2 3.2 0 01-1.782.544h-.5v.665h7.703v-.665h-1a2.297 2.297 0 01-1.887-.991 2.25 2.25 0 01-.234-2.105l2.431-6.132h6.233l2.612 6.44a2.028 2.028 0 01-.227 1.91 2.055 2.055 0 01-1.724.878h-.65v.665h9.454v-.665h-1c-.505 0-.998-.153-1.414-.436a2.484 2.484 0 01-.918-1.152L57.681.921l-.31-.03zm-3.862 11.54l2.852-7.174 2.851 7.174H53.51zM11.286.891L9.905 4.374 3.552 20.37a3.14 3.14 0 01-1.188 1.459 3.18 3.18 0 01-1.814.526h-.5v.665h7.704v-.665h-1a2.306 2.306 0 01-1.889-.991 2.26 2.26 0 01-.243-2.105l2.441-6.132h6.224l2.551 6.43a2.028 2.028 0 01-.18 1.86 2.054 2.054 0 01-1.63.938h-.661v.665h9.455v-.665h-1c-.507-.002-1-.154-1.418-.437a2.504 2.504 0 01-.924-1.15L11.586.92l-.3-.03zm-3.872 11.54l2.851-7.174 2.852 7.174H7.414zM141.094.891v.675h.74c.65 0 1.274.256 1.733.712a2.42 2.42 0 01.718 1.72V20.08c0 .604-.241 1.183-.67 1.61a2.31 2.31 0 01-1.621.673h-.9v.664h18.109l1.361-6.796-.68-.199-.201.754a7.465 7.465 0 01-2.686 4.013 7.573 7.573 0 01-4.597 1.554h-3.212a1.637 1.637 0 01-1.143-.474 1.61 1.61 0 01-.478-1.134V4.87c0-.873.35-1.711.973-2.33a3.336 3.336 0 012.349-.964h1.11V.901l-10.905-.01zm-23.272 0v.675h.731a2.473 2.473 0 011.739.709 2.412 2.412 0 01.722 1.722v16.084a2.278 2.278 0 01-1.421 2.109 2.314 2.314 0 01-.88.174h-.891v.664h18.1l1.35-6.796-.67-.199-.2.754a7.475 7.475 0 01-2.698 4.022 7.576 7.576 0 01-4.616 1.545h-3.222a1.626 1.626 0 01-1.139-.475 1.6 1.6 0 01-.471-1.133V4.87a3.272 3.272 0 01.97-2.332 3.332 3.332 0 012.351-.962h1.111V.901l-10.866-.01zm-4.592 15.142l-.2.754a7.468 7.468 0 01-2.683 4.01 7.57 7.57 0 01-4.591 1.557h-4.162a1.256 1.256 0 01-.875-.364 1.237 1.237 0 01-.366-.867v-9.922h4.162a3.602 3.602 0 012.527 1.054 3.552 3.552 0 011.035 2.518v.288h.67V6.716h-.67v.288c0 .942-.377 1.845-1.049 2.511a3.598 3.598 0 01-2.533 1.04h-4.162V1.567h5.743a6.033 6.033 0 014.084 1.572 5.934 5.934 0 011.919 3.905l.62-.109-.33-6.043h-18.48v.675h.741c.648.003 1.27.26 1.727.716a2.42 2.42 0 01.714 1.715v16.094a2.272 2.272 0 01-.674 1.594 2.31 2.31 0 01-1.607.669h-.9v.665h18.669l1.351-6.797-.68-.189zM84.065.891H71.769v.675h.74a2.47 2.47 0 011.733.712 2.43 2.43 0 01.718 1.72V20.08a2.273 2.273 0 01-.674 1.604 2.31 2.31 0 01-1.617.669h-.9v.665h9.655v-.665h-.9a2.31 2.31 0 01-1.622-.672 2.273 2.273 0 01-.67-1.61v-7.006h5.833a6.17 6.17 0 004.34-1.78 6.067 6.067 0 001.803-4.302 6.067 6.067 0 00-1.8-4.308A6.17 6.17 0 0084.066.89zm2.862 6.093a5.379 5.379 0 01-.41 2.09 5.413 5.413 0 01-1.19 1.77 5.468 5.468 0 01-1.787 1.18 5.505 5.505 0 01-2.106.407h-3.202V1.566h3.202a5.48 5.48 0 013.862 1.587 5.395 5.395 0 011.6 3.83h.03zM45.574 16.45a11.144 11.144 0 01-4.064 5.25 11.288 11.288 0 01-6.351 2.033 11.55 11.55 0 01-8.054-3.527 11.359 11.359 0 01-3.182-8.142 11.369 11.369 0 013.185-8.139 11.56 11.56 0 018.05-3.53c2.818.03 5.607.561 8.235 1.568l.57 6.678h-.73c-.63-3.453-2.951-7.402-7.254-7.402-5.102 0-8.534 4.495-8.534 10.18 0 5.686 3.822 10.29 9.235 10.29a9.5 9.5 0 004.858-1.488 9.393 9.393 0 003.376-3.771h.66z" fill="#000"/></svg>